<?xml version="1.0" encoding="utf-8"?>
<svg viewBox="524.2609252929688 205.00869750976562 302.2998046875 197.60000610351562" width="302.2998046875" height="197.60000610351562" xmlns="http://www.w3.org/2000/svg"><g transform="matrix(1, 0, 0, 1, 1.1368683772161603e-13, 0)"><path class="st4" d="M506.4,286.7c8.3-0.4,33.1-4.4,30.1-33.6c-3.1-29.2-20.5-27.9-30.1-29.2c-19.9-2.7-33.1,18.3-30.5,39.7&#10;&#9;&#9;&#9;C478.5,285,498.1,287.2,506.4,286.7z M506.3,239.1c4.9,0.7,13.9,0,15.5,15.1c1.6,15.1-11.2,17.1-15.5,17.3&#10;&#9;&#9;&#9;c-4.3,0.2-14.4-0.9-15.7-11.9C489.2,248.6,496,237.7,506.3,239.1z" style="fill: rgb(204, 204, 204); opacity: 1;" transform="matrix(1, 0, 0, 1, 102.26086425781261, 115.40869140624997)"/><path class="st4" d="M644.5,286.7c8.3-0.4,33.1-4.4,30.1-33.6c-3.1-29.2-20.5-27.9-30.1-29.2c-19.9-2.7-33.1,18.3-30.5,39.7&#10;&#9;&#9;&#9;C616.5,285,636.2,287.2,644.5,286.7z M644.3,239.1c4.9,0.7,13.9,0,15.5,15.1c1.6,15.1-11.2,17.1-15.5,17.3&#10;&#9;&#9;&#9;c-4.3,0.2-14.4-0.9-15.7-11.9C627.3,248.6,634.1,237.7,644.3,239.1z" style="fill: rgb(204, 204, 204); opacity: 1;" transform="matrix(1, 0, 0, 1, 102.26086425781261, 115.40869140624997)"/><path class="st1" d="M705.1,201.7c-0.4-34.9-24-84.2-32.3-94.2c-8.3-10-43.6-17.9-108.6-15.3s-65,57.1-76.8,77.2&#10;&#9;&#9;&#9;c-11.8,20.1-58.4,24.9-61.9,35.8c-3.5,10.9-0.9,62.8,3.1,64.5c3.9,1.7,36.6,0,36.6,0s-13.5-51.5,35.8-58.4c49.3-7,48,54.1,48,54.1&#10;&#9;&#9;&#9;c7.8,1.7,53.2,0,53.2,0s4.4-51,42-52.3c37.7-1.3,38.2,51,38.2,51c5.2,0.4,39.2,0,40.6,0c1.3,0,1.3-33.1,0-49.3&#10;&#9;&#9;&#9;C721.6,198.7,705.5,206.1,705.1,201.7z M589.9,160.7c-1.4,3.9-83.8,4.3-83.8,4.3s18.3-46.7,29.3-49.7c11.1-3.1,54.4-2.3,54.4-2.3&#10;&#9;&#9;&#9;S591.3,156.8,589.9,160.7z M611.7,160.7c-5.5,0.9-4-47.5-4-47.5s38-0.9,49.4,2.2c11.5,3.1,23.7,45.4,23.7,45.4&#10;&#9;&#9;&#9;S617.2,159.8,611.7,160.7z" style="fill: rgb(204, 204, 204); opacity: 1;" transform="matrix(1, 0, 0, 1, 102.26086425781261, 115.40869140624997)"/></g></svg>